<?xml version="1.0" standalone="no"?>
<!DOCTYPE svg PUBLIC "-//W3C//DTD SVG 20010904//EN"
 "http://www.w3.org/TR/2001/REC-SVG-20010904/DTD/svg10.dtd">
<svg version="1.0" xmlns="http://www.w3.org/2000/svg"
 width="1200.000000pt" height="1200.000000pt" viewBox="0 0 1200.000000 1200.000000"
 preserveAspectRatio="xMidYMid meet">
<metadata>
Created by potrace 1.11, written by Peter Selinger 2001-2013
</metadata>
<g transform="translate(0.000000,1200.000000) scale(0.100000,-0.100000)"
fill="#000000" stroke="none">
<path d="M0 6000 l0 -6000 6000 0 6000 0 0 6000 0 6000 -6000 0 -6000 0 0
-6000z m11580 0 l0 -5580 -5580 0 -5580 0 0 5580 0 5580 5580 0 5580 0 0
-5580z"/>
<path d="M610 6000 l0 -5390 5390 0 5390 0 0 5390 0 5390 -5390 0 -5390 0 0
-5390z m8390 4264 c0 -4 -20 -28 -44 -54 -55 -59 -71 -127 -38 -163 28 -31 42
-62 42 -91 0 -14 9 -40 20 -58 11 -18 20 -43 20 -54 0 -29 -76 -132 -128 -172
-32 -25 -42 -41 -47 -74 -4 -24 -13 -52 -20 -63 -8 -11 -21 -45 -29 -76 -17
-57 -39 -84 -121 -146 -22 -16 -47 -30 -55 -31 -87 -3 -188 -17 -183 -25 4 -7
-1 -8 -12 -3 -10 3 -54 0 -99 -8 -160 -30 -354 -56 -409 -56 -31 0 -58 -4 -61
-9 -3 -4 -25 -11 -48 -14 -138 -18 -302 -44 -333 -54 -11 -4 -38 -5 -60 -4
-22 1 -35 -2 -29 -6 7 -4 -14 -8 -45 -9 -31 -1 -99 -9 -151 -18 -52 -9 -160
-26 -240 -37 -265 -38 -458 -67 -530 -80 -90 -15 -102 -17 -173 -23 -37 -3
-105 -12 -150 -20 -127 -24 -347 -58 -397 -62 -25 -2 -85 -10 -135 -18 -49 -8
-131 -20 -182 -27 -51 -7 -89 -17 -86 -22 3 -5 -12 -6 -37 -2 -23 4 -40 3 -37
-1 3 -5 -21 -10 -52 -11 -31 -1 -96 -8 -146 -17 -131 -23 -306 -48 -332 -48
-13 0 -23 -4 -23 -9 0 -4 -6 -6 -13 -3 -7 2 -114 -11 -238 -30 -261 -40 -299
-46 -319 -47 -8 0 -67 -9 -130 -19 -315 -52 -389 -63 -430 -67 -25 -2 -87 -11
-138 -19 -51 -8 -96 -12 -101 -9 -5 3 -11 0 -13 -6 -2 -7 -12 1 -23 17 -10 16
-24 34 -31 41 -6 7 -19 43 -28 80 -38 160 -43 241 -21 303 9 25 20 97 24 160
5 69 17 145 31 190 35 116 32 156 -12 221 -44 63 -46 79 -19 214 17 82 26 105
60 150 23 30 41 60 41 67 0 6 -12 25 -27 41 -27 27 -28 32 -28 137 0 76 4 113
13 122 11 11 274 12 1430 8 2262 -8 4024 -2 4040 14 8 8 282 7 282 0z m965
-966 c32 -248 72 -508 78 -515 7 -6 120 6 307 33 195 27 424 54 429 49 2 -3
-15 -67 -38 -143 -24 -75 -54 -171 -66 -212 -13 -41 -37 -120 -53 -175 l-29
-100 71 -140 c39 -77 74 -142 77 -145 6 -5 63 -109 120 -217 18 -34 30 -65 27
-68 -6 -7 -141 -25 -363 -50 -71 -8 -155 -19 -185 -24 -90 -17 -188 -31 -325
-46 -71 -8 -177 -21 -235 -30 -58 -9 -179 -25 -270 -35 -91 -11 -221 -28 -290
-39 -69 -11 -162 -22 -207 -26 l-82 -7 -5 33 c-15 97 -15 168 -1 179 12 10 15
10 15 -1 0 -9 3 -10 8 -4 4 6 25 11 47 13 22 1 56 6 75 11 19 6 103 20 185 31
83 12 179 27 215 33 36 6 85 11 108 11 24 0 39 2 33 4 -22 7 -10 18 17 15 26
-4 167 40 187 58 5 5 16 9 25 9 18 1 250 99 234 100 -6 0 -182 -25 -390 -56
-208 -30 -516 -75 -684 -100 -168 -24 -359 -53 -425 -63 -134 -22 -199 -31
-660 -97 -176 -25 -405 -59 -510 -75 -225 -35 -617 -93 -765 -114 -58 -8 -148
-22 -200 -30 -52 -8 -165 -24 -250 -36 -85 -11 -162 -22 -171 -24 -8 -3 -107
-18 -220 -35 -112 -16 -359 -52 -549 -80 -190 -28 -464 -69 -610 -90 -146 -21
-375 -55 -510 -75 -297 -44 -790 -116 -1035 -150 -172 -25 -473 -69 -675 -100
-52 -8 -164 -24 -248 -36 -83 -12 -151 -23 -150 -25 5 -4 305 -34 393 -38 49
-3 84 -1 76 3 -7 5 28 11 86 14 54 3 114 8 133 12 59 9 224 36 248 39 12 2 22
-2 22 -8 0 -5 10 10 22 34 22 42 25 45 60 42 20 -1 39 2 43 8 3 6 10 8 15 5 8
-5 171 18 320 45 30 5 83 12 118 14 59 5 337 45 447 66 58 11 170 27 272 39
39 5 81 12 92 16 12 3 58 11 104 16 45 6 114 14 152 19 39 4 81 11 95 14 14 3
48 8 75 11 28 3 88 12 135 20 47 7 123 19 170 25 47 7 94 16 106 20 11 4 33 5
49 3 15 -3 26 -2 23 3 -3 5 15 10 42 11 26 1 87 8 136 16 49 8 127 20 174 27
47 6 114 16 150 21 36 6 94 14 130 19 92 13 250 39 280 45 14 3 67 8 118 11
51 4 88 10 82 14 -6 3 4 6 22 6 30 0 118 13 308 46 36 6 74 11 85 10 11 -1 45
5 76 13 31 8 72 15 90 15 38 0 223 26 284 40 33 7 42 6 53 -8 18 -23 8 -157
-14 -194 -14 -23 -3 -102 22 -152 34 -67 42 -136 20 -167 -22 -32 -20 -44 9
-57 14 -6 25 -19 25 -27 0 -24 -59 -135 -75 -141 -8 -3 -28 -36 -45 -72 -17
-37 -42 -78 -55 -92 -32 -35 -75 -100 -75 -115 0 -7 16 -22 35 -34 19 -11 35
-25 35 -30 0 -5 -17 -30 -39 -55 -27 -31 -40 -57 -45 -90 -5 -28 -15 -51 -27
-59 -10 -8 -16 -17 -11 -21 4 -4 2 -6 -3 -5 -15 5 -55 -20 -92 -55 -27 -25
-38 -49 -58 -126 -13 -52 -25 -114 -25 -137 0 -24 -11 -67 -25 -97 -14 -30
-25 -59 -25 -64 0 -9 -78 -79 -217 -192 -65 -54 -78 -74 -75 -117 2 -18 -7
-58 -18 -90 -11 -31 -20 -65 -20 -75 0 -9 -13 -33 -30 -51 -25 -29 -30 -43
-30 -84 0 -62 -23 -94 -90 -128 -46 -23 -49 -27 -60 -82 -6 -32 -19 -74 -29
-93 -18 -37 -18 -49 -1 -122 9 -38 8 -67 -9 -160 -11 -62 -22 -129 -24 -148
-3 -19 -12 -55 -21 -79 -20 -55 -20 -85 0 -101 32 -27 36 -49 19 -101 -11 -32
-15 -63 -10 -85 7 -41 -18 -117 -64 -189 -34 -54 -41 -80 -44 -172 -2 -46 -8
-70 -24 -92 -33 -43 -34 -170 -4 -230 17 -32 20 -50 15 -74 -5 -18 -7 -51 -5
-74 3 -46 -9 -74 -47 -115 -25 -27 -25 -29 -14 -92 17 -88 15 -134 -7 -183
-20 -43 -62 -73 -103 -73 -13 0 -36 -10 -51 -23 -27 -21 -30 -30 -36 -109 -6
-80 -9 -89 -51 -149 -41 -58 -44 -68 -43 -120 1 -53 45 -179 62 -179 3 0 26
-18 50 -40 37 -34 43 -44 38 -69 -5 -25 -3 -29 22 -34 43 -9 92 -56 118 -114
12 -30 23 -56 23 -58 0 -12 -944 2 -1635 25 -176 6 -455 15 -620 20 l-300 9
-31 36 c-21 23 -39 62 -54 116 l-23 81 21 44 c19 38 22 62 22 167 0 67 4 169
10 227 8 95 22 323 21 360 0 8 4 58 9 110 6 52 17 255 25 450 9 195 18 365 20
377 3 11 10 128 16 260 5 131 14 319 18 418 7 150 6 185 -6 209 -10 19 -13 43
-9 70 8 53 -18 97 -73 126 -50 25 -63 48 -55 98 3 21 1 57 -6 81 l-11 43 -52
-6 c-149 -15 -147 -14 -166 -106 -6 -30 -19 -62 -28 -72 -23 -25 -63 -22 -97
7 -27 23 -30 32 -38 122 -10 113 -8 126 31 191 15 26 34 65 41 86 7 21 18 50
26 64 8 15 14 32 14 38 0 6 11 21 25 34 17 16 23 30 19 43 -3 11 -2 22 3 26 5
3 17 32 26 65 19 67 12 93 -41 159 -43 53 -46 82 -24 194 20 97 22 136 9 149
-4 4 -7 14 -7 21 0 8 -13 31 -29 51 -29 37 -30 38 -37 214 -3 97 -9 180 -13
186 -7 10 -155 -9 -521 -68 -69 -11 -178 -27 -243 -35 -66 -8 -122 -17 -127
-20 -9 -5 -78 -16 -285 -45 -77 -11 -180 -26 -230 -34 -143 -24 -287 -45 -330
-48 -31 -2 -40 0 -38 12 1 16 77 305 86 330 5 16 15 56 47 192 l20 86 -69 114
c-86 139 -174 280 -224 358 -21 33 -36 64 -33 68 3 5 25 12 48 16 24 3 104 15
178 26 227 33 322 48 388 59 34 7 67 9 72 6 14 -9 13 3 -16 186 -42 274 -72
474 -70 475 1 2 51 9 731 110 242 36 528 79 635 95 273 42 636 96 760 114 58
8 148 22 200 30 52 8 140 22 195 29 103 15 258 38 850 126 369 56 762 113 920
136 55 7 143 21 195 29 52 8 145 22 205 30 61 8 135 19 165 25 30 5 150 23
265 39 116 17 332 49 480 71 404 60 738 110 845 125 52 7 172 25 265 38 94 14
301 44 460 67 214 31 994 148 1056 159 4 1 14 -59 24 -131z m-2082 -125 c-7
-2 -21 -2 -30 0 -10 3 -4 5 12 5 17 0 24 -2 18 -5z m755 -1625 c-7 -106 -67
-291 -168 -514 -101 -226 -351 -695 -372 -701 -24 -7 -23 -45 2 -61 27 -16 25
-48 -5 -116 -14 -31 -25 -59 -25 -61 0 -3 52 -5 115 -5 l115 0 -2 -172 -3
-173 -120 -6 c-204 -10 -231 -42 -185 -219 25 -96 25 -93 -10 -114 l-31 -18
21 -32 c28 -47 68 -156 90 -250 22 -92 80 -420 80 -452 0 -18 -9 -22 -77 -32
-100 -16 -103 -15 -103 6 0 36 -90 474 -109 530 -36 106 -61 154 -78 148 -57
-22 -54 -25 -125 119 l-68 135 -38 0 c-40 0 -87 28 -213 126 -48 38 -62 44
-104 44 -39 0 -159 -27 -296 -66 -9 -2 -16 2 -16 10 0 9 4 13 8 11 4 -3 10 14
14 36 5 29 10 38 16 28 6 -10 9 -8 9 10 0 12 18 61 40 107 22 47 40 86 40 89
0 2 16 30 34 61 19 32 32 62 29 67 -4 6 -1 7 6 3 8 -6 11 -2 9 10 -2 16 3 19
32 17 19 -2 149 -6 288 -9 190 -5 257 -3 265 5 9 10 8 15 -5 25 -25 18 -22 37
21 151 l38 100 46 3 c49 3 58 15 36 50 -11 17 -2 64 92 482 56 250 138 521
185 611 12 25 18 29 25 18 5 -8 9 -9 9 -3 0 6 6 11 13 11 48 3 352 57 355 63
1 3 30 7 64 8 l61 3 -5 -83z m-672 -3559 c44 -46 57 -51 104 -34 58 20 99 19
170 -6 49 -17 66 -19 92 -10 46 16 89 14 165 -10 73 -22 124 -46 135 -63 4 -6
8 -45 9 -86 2 -131 -8 -123 149 -121 172 2 222 -7 266 -50 84 -81 120 -241
145 -635 14 -234 9 -264 -65 -389 -77 -128 -173 -215 -349 -314 -85 -48 -84
-44 -61 -238 6 -46 4 -54 -18 -76 -43 -43 -218 -98 -375 -117 -199 -25 -562
-4 -705 40 -36 11 -88 35 -115 53 -62 41 -65 66 -22 173 l32 79 -2 583 c-2
467 -5 590 -16 617 -11 24 -12 42 -4 68 8 28 5 45 -12 89 -24 62 -21 122 11
175 13 23 20 52 20 89 l0 55 43 18 c23 10 53 30 66 45 17 18 35 26 56 26 18 0
66 16 106 35 95 44 136 45 175 4z"/>
<path d="M7970 8855 c-85 -13 -169 -26 -186 -29 l-30 -6 4 -62 c7 -94 -21
-822 -34 -896 -6 -31 -5 -33 17 -28 13 3 104 17 203 31 175 26 180 27 222 63
l44 36 1 91 c0 49 2 106 3 125 2 19 7 134 10 255 4 121 9 259 12 306 l6 87
-38 26 c-45 31 -36 31 -234 1z m95 -231 c0 -188 -16 -599 -24 -607 -10 -11
-122 -28 -134 -20 -6 3 -7 59 -3 147 3 77 9 234 12 348 4 113 10 211 13 217 7
10 105 31 126 26 6 -1 10 -46 10 -111z"/>
<path d="M7550 8799 c-103 -16 -102 -16 -95 -50 4 -17 4 -144 0 -282 l-8 -251
-59 189 c-32 105 -70 226 -83 271 l-25 80 -85 -11 c-47 -7 -88 -14 -91 -18 -4
-3 -2 -19 3 -34 14 -40 -19 -891 -35 -920 -16 -29 -7 -32 63 -22 135 20 127
17 120 51 -10 43 6 539 16 508 4 -14 23 -74 42 -135 19 -60 51 -166 72 -235
21 -69 41 -129 46 -134 7 -8 166 8 175 17 2 2 0 17 -5 33 -4 16 -2 180 5 369
7 187 14 378 15 425 1 47 8 102 15 123 15 43 16 42 -86 26z"/>
<path d="M6878 8696 c-43 -7 -80 -14 -83 -17 -2 -3 -1 -19 3 -35 9 -32 -22
-881 -33 -927 -7 -26 -5 -28 16 -23 13 3 57 10 96 16 l73 12 -6 39 c-8 47 14
769 26 854 5 33 11 68 15 78 8 20 5 20 -107 3z"/>
<path d="M6453 8635 c-117 -17 -215 -34 -218 -36 -2 -3 -1 -19 3 -35 9 -32
-22 -882 -33 -927 -7 -26 -5 -28 16 -23 13 3 56 10 94 16 l70 11 1 205 c0 143
4 208 12 216 7 7 41 14 76 16 62 4 64 5 70 34 11 53 7 118 -6 118 -7 0 -35 -7
-62 -15 -80 -24 -76 -31 -76 124 0 106 3 141 14 150 18 15 174 41 249 41 65 0
65 1 46 90 -8 37 -15 50 -27 49 -9 -1 -113 -16 -229 -34z"/>
<path d="M6100 8580 c-25 -5 -67 -11 -94 -15 -47 -6 -48 -7 -42 -35 3 -18 -18
-140 -54 -312 -33 -156 -60 -287 -61 -293 0 -5 -21 114 -45 265 -34 212 -42
282 -34 304 6 16 8 31 6 34 -3 2 -38 -1 -78 -8 -136 -21 -127 -16 -121 -58 3
-23 -14 -126 -46 -272 -27 -129 -53 -253 -57 -275 -11 -61 -18 -31 -64 253
-29 183 -37 259 -30 272 5 10 10 23 10 27 0 8 -189 -14 -199 -23 -2 -2 4 -27
13 -56 9 -29 47 -233 85 -452 55 -316 67 -404 59 -422 -6 -13 -9 -26 -7 -28 2
-2 50 4 106 12 l102 15 -2 36 c-2 43 104 514 113 504 14 -17 82 -452 75 -483
-7 -31 -6 -31 27 -26 59 10 163 26 171 26 5 0 6 13 2 29 -4 18 5 78 24 157 16
71 48 212 71 314 80 357 102 444 116 471 15 31 18 50 7 48 -5 -1 -28 -5 -53
-9z"/>
<path d="M4927 8410 c-104 -15 -203 -31 -220 -34 l-32 -6 0 -187 c0 -284 -15
-692 -27 -746 -5 -26 -9 -50 -7 -51 2 -2 105 11 229 30 124 18 227 34 230 34
7 0 41 142 36 147 -2 2 -16 -2 -32 -8 -39 -15 -265 -50 -277 -42 -12 7 0 274
13 287 5 5 40 11 79 14 l71 5 0 75 c0 72 -1 74 -22 68 -67 -19 -119 -29 -124
-23 -13 12 -4 272 10 285 15 15 176 42 255 42 l53 0 -7 57 c-8 68 -14 83 -29
82 -6 -1 -96 -14 -199 -29z"/>
<path d="M4263 8311 c-101 -15 -185 -30 -188 -32 -2 -3 -1 -19 4 -35 4 -16 2
-180 -5 -364 -18 -470 -21 -531 -29 -563 -7 -26 -6 -28 16 -23 13 3 56 10 94
16 l70 11 -3 152 c-2 84 1 179 5 211 7 54 11 60 36 67 23 6 30 4 37 -14 16
-38 53 -317 47 -358 -6 -45 -9 -44 96 -28 99 14 99 14 87 44 -11 28 -60 329
-60 366 0 13 16 39 36 61 41 41 36 7 49 324 l5 141 -34 27 c-41 31 -32 31
-263 -3z m125 -248 c3 -158 -2 -168 -90 -178 -45 -5 -58 -3 -59 7 -6 70 5 265
14 275 12 12 102 33 122 29 6 -2 11 -56 13 -133z"/>
<path d="M3672 8220 c-100 -15 -185 -30 -188 -33 -4 -3 -2 -19 3 -34 6 -18 5
-146 -3 -353 -7 -179 -13 -370 -15 -425 -1 -55 -8 -117 -15 -138 l-14 -39 28
6 c15 3 108 17 207 32 129 18 186 31 200 43 67 59 62 39 69 246 l7 190 -35 19
-36 19 40 43 40 44 0 97 c0 54 3 135 6 179 l6 82 -38 26 c-46 31 -32 31 -262
-4z m126 -226 c5 -177 1 -186 -95 -198 l-53 -7 0 134 c0 92 4 139 13 151 11
15 95 37 122 31 6 -1 11 -49 13 -111z m-13 -325 c4 -6 4 -71 0 -145 -8 -153
-6 -150 -102 -156 l-48 -3 3 140 c2 77 7 144 12 148 4 5 29 12 56 16 70 12 72
12 79 0z"/>
<path d="M2538 6673 c7 -3 16 -2 19 1 4 3 -2 6 -13 5 -11 0 -14 -3 -6 -6z"/>
<path d="M5301 6626 c-7 -9 -9 -21 -5 -28 5 -7 7 -20 6 -30 -2 -9 14 -28 37
-45 22 -15 41 -32 41 -36 0 -4 -46 -30 -103 -56 -106 -51 -120 -61 -131 -98
-5 -17 -3 -23 7 -23 8 0 18 -11 21 -25 10 -40 51 -32 201 41 81 38 143 63 154
59 9 -3 46 -25 81 -50 51 -36 72 -45 105 -45 32 0 41 4 41 18 1 9 4 29 8 43 6
22 2 32 -26 58 -18 18 -45 39 -60 47 -33 17 -35 37 -8 71 26 34 25 47 -5 67
-32 21 -58 20 -105 -4 l-40 -20 -52 29 c-65 37 -148 50 -167 27z"/>
<path d="M5722 5881 c2 -45 7 -66 17 -69 11 -4 13 5 7 49 -11 82 -26 96 -24
20z"/>
<path d="M5711 5688 c-15 -39 -30 -112 -25 -120 3 -5 16 -8 29 -8 21 0 25 7
35 55 6 30 10 63 8 72 -5 27 -36 28 -47 1z"/>
<path d="M5601 5403 l-43 -67 22 -18 c12 -10 26 -18 30 -18 9 0 62 81 81 123
11 24 10 30 -2 38 -29 18 -46 7 -88 -58z"/>
<path d="M5425 5208 c-33 -28 -61 -54 -63 -58 -1 -4 6 -18 17 -31 l19 -23 39
27 c21 15 54 43 73 62 l33 34 -24 20 c-13 11 -26 20 -29 20 -3 0 -32 -23 -65
-51z"/>
<path d="M5178 5054 c-49 -24 -88 -49 -88 -55 0 -17 20 -49 30 -49 13 0 135
56 166 76 23 16 23 17 7 45 -10 16 -20 29 -23 28 -3 0 -44 -20 -92 -45z"/>
<path d="M4897 4911 c-101 -62 -101 -61 -74 -94 l22 -28 87 53 c88 54 96 64
78 99 -15 27 -25 24 -113 -30z"/>
<path d="M4633 4720 c-46 -39 -83 -74 -83 -78 0 -13 31 -52 41 -52 11 0 169
132 169 142 0 4 -10 18 -22 33 l-23 26 -82 -71z"/>
<path d="M4419 4502 c-25 -31 -58 -74 -74 -95 l-28 -38 23 -24 c24 -25 50 -33
50 -15 0 5 29 46 65 90 36 44 65 86 65 94 0 14 -31 46 -46 46 -5 0 -30 -26
-55 -58z"/>
<path d="M4234 4218 c-36 -71 -74 -181 -66 -189 4 -4 21 -10 38 -13 29 -7 31
-5 43 36 7 24 26 69 42 100 16 32 29 64 29 72 0 14 -36 46 -52 46 -4 0 -20
-24 -34 -52z"/>
<path d="M4136 3908 c-3 -13 -6 -60 -6 -105 l0 -83 34 0 33 0 6 98 c2 53 4 98
3 98 0 1 -15 5 -32 8 -27 6 -32 4 -38 -16z"/>
<path d="M4154 3583 c9 -46 82 -196 108 -219 15 -14 23 -15 43 -6 14 6 25 16
25 21 0 5 -16 35 -35 67 -20 33 -45 85 -57 117 -20 54 -22 57 -55 57 -35 0
-35 0 -29 -37z"/>
<path d="M4369 3280 l-24 -20 40 -35 c22 -19 69 -53 103 -77 50 -32 68 -39 80
-31 32 19 26 49 -15 74 -21 13 -62 43 -90 66 -29 24 -57 43 -62 43 -5 0 -19
-9 -32 -20z"/>
<path d="M4666 3078 c-22 -31 -20 -43 12 -64 15 -9 57 -42 94 -71 60 -49 69
-53 87 -41 12 7 21 18 21 24 0 12 -111 114 -167 152 l-32 22 -15 -22z"/>
<path d="M4938 2839 c-27 -15 -22 -30 27 -88 25 -29 50 -62 56 -72 11 -21 59
-26 59 -6 0 17 -102 170 -115 174 -5 1 -18 -2 -27 -8z"/>
<path d="M5079 2558 c0 -2 -2 -39 -3 -83 -4 -75 -3 -78 11 -51 8 15 17 52 20
82 5 46 3 54 -11 54 -9 0 -16 -1 -17 -2z"/>
<path d="M7128 6103 c7 -3 16 -2 19 1 4 3 -2 6 -13 5 -11 0 -14 -3 -6 -6z"/>
<path d="M7801 3965 c-44 -21 -88 -35 -111 -35 -45 0 -57 -13 -113 -126 -19
-38 -42 -76 -50 -82 -19 -16 -41 -95 -34 -124 3 -13 13 -43 21 -66 13 -33 14
-52 7 -79 -10 -37 -10 -37 52 -146 14 -24 17 -45 13 -83 -6 -72 9 -128 55
-205 42 -71 48 -102 23 -137 -17 -25 -16 -103 3 -109 18 -6 35 61 28 111 -8
48 11 99 61 166 23 31 25 41 20 95 -3 33 -10 85 -16 115 -10 56 -5 119 12 155
6 11 27 37 46 58 36 37 36 37 19 66 -19 33 -23 124 -7 168 19 49 92 150 124
169 29 18 53 19 311 17 154 -1 273 0 265 3 -108 36 -120 38 -178 26 -52 -11
-66 -10 -122 8 -75 24 -106 25 -154 5 -46 -20 -75 -12 -117 31 -42 43 -65 43
-158 -1z"/>
<path d="M8794 3505 c-81 -17 -142 -49 -149 -78 -3 -12 -5 -211 -3 -442 4
-494 2 -485 99 -485 97 0 198 62 270 167 28 40 31 53 41 175 12 154 -2 425
-27 536 -19 81 -45 116 -101 131 -47 13 -53 13 -130 -4z"/>
</g>
</svg>
